<svg width="828" height="855" viewBox="0 0 828 855" fill="none" xmlns="http://www.w3.org/2000/svg">
<path fill-rule="evenodd" clip-rule="evenodd" d="M99.3 548.3L69.6 548.8L54.6 549.1C49.6 549.2 44.5 549.1 39.5 549.2H38.6V548.3L38.5 523V522H39.5L69.4 522.2C79.3 522.2 89.3 522.4 99.3 522.5H99.8V523C99.8 527.3 99.6 531.6 99.6 535.8L99.3 548.3ZM99.3 548.3L99 535.5C98.9 531.5 98.8 527.5 98.7 523.6C88.9 523.7 79.1 523.9 69.4 523.9L40.5 524L40.4 547.4C45 547.4 49.6 547.4 54.3 547.5L69.1 547.7L99.3 548.3ZM98.8 523.6C99 523.6 99.1667 523.6 99.3 523.6L98.8 523.1C98.8 523.233 98.8 523.4 98.8 523.6ZM40.5 524V523.1L39.5 524H40.5ZM40.4 547.4C40.1333 547.4 39.8333 547.4 39.5 547.4L40.4 548.3V547.4Z" fill="#EBEBEB"/>
<path fill-rule="evenodd" clip-rule="evenodd" d="M65.9001 580.1L36.3001 580.7L21.2001 580.9C16.2001 581 11.2001 581 6.1001 581H5.2001V580.1L5.1001 554.9V553.9H6.1001L36.0001 554C46.0001 554 56.0001 554.2 65.9001 554.3H66.5001V554.9C66.4001 559.2 66.3001 563.4 66.2001 567.6L65.9001 580.1ZM65.9001 580.1L65.6001 567.4C65.5001 563.4 65.4001 559.4 65.4001 555.4C55.6001 555.5 45.8001 555.7 36.0001 555.7L7.1001 555.9L7.0001 579.2C11.6001 579.3 16.3001 579.3 20.9001 579.4L35.8001 579.6L65.9001 580.1ZM65.3001 555.4C65.5001 555.4 65.7001 555.4 65.9001 555.4L65.3001 554.8C65.3001 555 65.3001 555.2 65.3001 555.4ZM7.1001 555.8V554.8L6.1001 555.8H7.1001ZM7.0001 579.2C6.66677 579.2 6.36676 579.2 6.1001 579.2L7.0001 580.1V579.2Z" fill="#EBEBEB"/>
<path fill-rule="evenodd" clip-rule="evenodd" d="M65.9001 33.4002L36.3001 34.0002L21.2001 34.2002C16.2001 34.3002 11.2001 34.3002 6.1001 34.3002H5.2001V33.4002L5.1001 8.2002V7.2002H6.1001L36.0001 7.3002C46.0001 7.3002 56.0001 7.5002 65.9001 7.6002H66.5001V8.2002C66.4001 12.4002 66.3001 16.7002 66.2001 20.9002L65.9001 33.4002ZM65.9001 33.4002L65.6001 20.7002C65.5001 16.6002 65.4001 12.7002 65.4001 8.7002C55.6001 8.8002 45.8001 9.0002 36.0001 9.0002L7.1001 9.1002L7.0001 32.5002C11.6001 32.6002 16.3001 32.5002 20.9001 32.6002L35.8001 32.9002L65.9001 33.4002ZM65.3001 8.6002C65.5001 8.6002 65.7001 8.6002 65.9001 8.6002L65.3001 8.1002C65.3001 8.3002 65.3001 8.46686 65.3001 8.6002ZM7.1001 9.1002V8.1002L6.1001 9.1002H7.1001ZM7.0001 32.5002C6.66677 32.5002 6.36676 32.5002 6.1001 32.5002L7.0001 33.4002V32.5002Z" fill="#EBEBEB"/>
<path fill-rule="evenodd" clip-rule="evenodd" d="M821.9 33.4002L792.2 34.0002L777.2 34.2002C772.2 34.3002 767.1 34.3002 762.1 34.3002H761.2V33.4002L761.1 8.2002V7.2002H762.1L792 7.3002C801.9 7.3002 811.9 7.5002 821.9 7.6002H822.4V8.2002C822.4 12.4002 822.2 16.7002 822.2 20.9002L821.9 33.4002ZM821.9 33.4002L821.6 20.7002C821.5 16.6002 821.4 12.7002 821.3 8.7002C811.5 8.8002 801.7 9.0002 792 9.0002L763.1 9.1002L763 32.5002C767.6 32.6002 772.2 32.5002 776.9 32.6002L791.7 32.9002L821.9 33.4002ZM821.4 8.6002C821.6 8.6002 821.767 8.6002 821.9 8.6002L821.4 8.1002C821.4 8.3002 821.4 8.46686 821.4 8.6002ZM763.1 9.1002V8.1002L762.1 9.1002H763.1ZM763 32.5002C762.733 32.5002 762.433 32.5002 762.1 32.5002L763 33.4002V32.5002Z" fill="#EBEBEB"/>
<path fill-rule="evenodd" clip-rule="evenodd" d="M788.5 65.3L758.9 65.8L743.8 66.1C738.8 66.2 733.8 66.1 728.7 66.2H727.8V65.3L727.7 40V39H728.7L758.6 39.1C768.6 39.2 778.6 39.4 788.5 39.5H789.1V40C789 44.3 788.9 48.6 788.8 52.8L788.5 65.3ZM788.5 65.3L788.2 52.5C788.1 48.5 788 44.5 788 40.6C778.2 40.7 768.4 40.9 758.6 40.9L729.7 41L729.6 64.4C734.2 64.4 738.9 64.4 743.5 64.5L758.4 64.7L788.5 65.3ZM787.9 40.6C788.1 40.6 788.3 40.6 788.5 40.6L787.9 40C787.9 40.2 787.9 40.4 787.9 40.6ZM729.7 41V40L728.7 41H729.7ZM729.6 64.4C729.267 64.4 728.967 64.4 728.7 64.4L729.6 65.3V64.4Z" fill="#EBEBEB"/>
<path fill-rule="evenodd" clip-rule="evenodd" d="M635.4 360.9L605.7 361.4L590.7 361.7C585.7 361.8 580.6 361.7 575.6 361.8H574.7V360.9L574.6 335.6V334.6H575.6L605.5 334.7C615.5 334.7 625.4 335 635.4 335.1H635.9V335.6C635.9 339.9 635.8 344.1 635.7 348.4L635.4 360.9ZM635.4 360.9L635.1 348.1C635 344.1 634.9 340.1 634.8 336.1C625 336.2 615.3 336.5 605.5 336.5L576.6 336.6L576.5 360C581.1 360 585.7 360 590.4 360.1L605.2 360.3L635.4 360.9ZM634.9 336.2C635.1 336.2 635.267 336.2 635.4 336.2L634.9 335.6C634.9 335.8 634.9 336 634.9 336.2ZM576.6 336.6V335.6L575.6 336.6H576.6ZM576.5 360C576.233 360 575.967 360 575.7 360L576.5 360.9V360Z" fill="#EBEBEB"/>
<path fill-rule="evenodd" clip-rule="evenodd" d="M602 392.7L572.4 393.3L557.3 393.5C552.3 393.6 547.3 393.6 542.2 393.6H541.3V392.7L541.2 367.5V366.5H542.2L572.1 366.6C582.1 366.6 592.1 366.8 602 366.9H602.6V367.5C602.5 371.7 602.4 376 602.3 380.2L602 392.7ZM602 392.7L601.7 380C601.6 375.9 601.5 372 601.5 368C591.7 368.1 581.9 368.3 572.1 368.3L543.2 368.4L543.1 391.8C547.7 391.9 552.4 391.8 557 391.9L571.9 392.2L602 392.7ZM601.4 367.9C601.6 367.9 601.8 367.9 602 367.9L601.4 367.4C601.4 367.6 601.4 367.767 601.4 367.9ZM543.2 368.4V367.4L542.2 368.4H543.2ZM543.1 391.8C542.767 391.8 542.467 391.8 542.2 391.8L543.1 392.7V391.8Z" fill="#EBEBEB"/>
<path fill-rule="evenodd" clip-rule="evenodd" d="M568.8 360.9L539.1 361.4L524.1 361.7C519.1 361.8 514 361.7 509 361.8H508.1V360.9L508 335.6V334.6H509L538.9 334.7C548.9 334.7 558.8 335 568.8 335.1H569.4V335.6C569.3 339.9 569.2 344.1 569.1 348.4L568.8 360.9ZM568.8 360.9L568.5 348.1C568.4 344.1 568.3 340.1 568.2 336.1C558.5 336.2 548.7 336.5 538.9 336.5L510 336.6L509.9 360C514.5 360 519.2 360 523.8 360.1L538.7 360.3L568.8 360.9ZM568.2 336.2C568.4 336.2 568.6 336.2 568.8 336.2L568.2 335.6C568.2 335.8 568.2 336 568.2 336.2ZM510 336.6V335.6L509 336.6H510ZM509.9 360C509.567 360 509.267 360 509 360L509.9 360.9V360Z" fill="#EBEBEB"/>
<path fill-rule="evenodd" clip-rule="evenodd" d="M821.9 580.1L792.2 580.7L777.2 580.9C772.2 581 767.1 581 762.1 581H761.2V580.1L761.1 554.9V553.9H762.1L792 554C801.9 554 811.9 554.2 821.9 554.3H822.4V554.9C822.4 559.2 822.2 563.4 822.2 567.6L821.9 580.1ZM821.9 580.1L821.6 567.4C821.5 563.4 821.4 559.4 821.3 555.4C811.5 555.5 801.7 555.7 792 555.7L763.1 555.9L763 579.2C767.6 579.3 772.2 579.3 776.9 579.4L791.7 579.6L821.9 580.1ZM821.4 555.4C821.6 555.4 821.767 555.4 821.9 555.4L821.4 554.8C821.4 555 821.4 555.2 821.4 555.4ZM763.1 555.8V554.8L762.1 555.8H763.1ZM763 579.2C762.733 579.2 762.433 579.2 762.1 579.2L763 580.1V579.2Z" fill="#EBEBEB"/>
<path fill-rule="evenodd" clip-rule="evenodd" d="M313.9 108.6L284.2 109.1L269.2 109.3C264.1 109.4 259.1 109.4 254.1 109.5H253.2V108.6L253.1 83.2998V82.2998H254.1L284 82.3998C293.9 82.3998 303.9 82.5998 313.9 82.7998H314.4V83.2998C314.4 87.5998 314.2 91.7998 314.1 95.9998L313.9 108.6ZM313.9 108.6L313.7 95.8998C313.6 91.8998 313.4 87.8998 313.4 83.8998C303.6 83.9998 293.8 84.1998 284 84.2998L255.1 84.3998L255 107.8C259.7 107.8 264.3 107.8 268.9 107.9L283.8 108.1L313.9 108.6ZM313.4 83.8998C313.533 83.8998 313.7 83.8998 313.9 83.8998L313.4 83.2998C313.4 83.4998 313.4 83.6998 313.4 83.8998ZM255.1 84.2998V83.2998L254.1 84.2998H255.1ZM255 107.7C254.733 107.7 254.433 107.7 254.1 107.7L255 108.6V107.7Z" fill="#EBEBEB"/>
<path fill-rule="evenodd" clip-rule="evenodd" d="M754.6 272.3C752.9 271.3 750.8 271.3 749.1 272.4C748.633 272.666 748.133 272.933 747.6 273.2C747.133 273.466 746.633 273.7 746.1 273.9C744.3 274.8 743.1 276.5 743 278.5L742.8 285.4L720.5 284.7L720.7 277.8C720.8 275.8 719.7 274 717.9 273C716.967 272.466 716.033 271.9 715.1 271.3C713.4 270.1 711.3 270 709.5 270.9L703.5 274.2L693 254.5L699 251.2C700.7 250.3 701.8 248.4 701.8 246.4C701.733 245.333 701.767 244.233 701.9 243.1C702 241.1 701.1 239.2 699.4 238.1L693.6 234.5L705.3 215.5L711.2 219.1C712.9 220.2 715 220.1 716.8 219.1C717.267 218.833 717.733 218.566 718.2 218.3C718.667 218.033 719.133 217.766 719.6 217.5C721.5 216.7 722.7 214.9 722.8 212.9L723 206.1L745.3 206.7L745.1 213.6C745 215.6 746.1 217.4 747.9 218.4C748.833 218.933 749.767 219.533 750.7 220.2C752.4 221.3 754.5 221.5 756.3 220.5L762.3 217.3L772.8 237L766.8 240.2C765.1 241.2 764 243 764.1 245C764.1 246.133 764.033 247.266 763.9 248.4C763.8 250.4 764.7 252.3 766.4 253.4L772.2 257L760.5 275.9L754.6 272.3ZM749 237.1C744.2 228.2 733.1 224.8 724.2 229.6C715.3 234.4 711.9 245.5 716.7 254.4C721.5 263.3 732.6 266.6 741.5 261.9C750.4 257.1 753.7 246 749 237.1Z" fill="#EBEBEB"/>
<path fill-rule="evenodd" clip-rule="evenodd" d="M111.2 487.4C109.5 486.3 107.4 486.4 105.7 487.4C105.233 487.733 104.733 488.033 104.2 488.3C103.733 488.566 103.267 488.8 102.8 489C100.9 489.9 99.7001 491.6 99.7001 493.6L99.4001 500.5L77.1001 499.8L77.3001 492.9C77.4001 490.9 76.3001 489.1 74.5001 488.1C73.5668 487.566 72.6334 487 71.7001 486.4C70.0001 485.2 67.9001 485.1 66.1001 486L60.1001 489.2L49.6001 469.5L55.6001 466.3C57.4001 465.4 58.4001 463.5 58.4001 461.5C58.3334 460.366 58.3668 459.266 58.5001 458.2C58.6001 456.2 57.7001 454.2 56.0001 453.2L50.2001 449.6L62.0001 430.6L67.8001 434.2C69.5001 435.3 71.6001 435.2 73.4001 434.2C73.8668 433.866 74.3334 433.6 74.8001 433.4C75.2668 433.133 75.7668 432.866 76.3001 432.6C78.1001 431.8 79.3001 430 79.4001 428L79.6001 421.1L101.9 421.8L101.7 428.7C101.6 430.7 102.7 432.5 104.5 433.5C105.433 434.033 106.367 434.6 107.3 435.2C109 436.4 111.1 436.5 112.9 435.6L118.9 432.4L129.5 452.1L123.4 455.3C121.7 456.2 120.6 458.1 120.7 460.1C120.7 461.233 120.667 462.333 120.6 463.4C120.4 465.4 121.3 467.4 123 468.4L128.8 472L117.1 491L111.2 487.4ZM105.6 452.2C100.8 443.3 89.7001 439.9 80.8001 444.7C71.9001 449.5 68.5001 460.6 73.3001 469.5C78.1001 478.4 89.2001 481.7 98.1001 476.9C107 472.2 110.3 461.1 105.6 452.2Z" fill="#EBEBEB"/>
<path fill-rule="evenodd" clip-rule="evenodd" d="M341.6 129.9C340.4 130.6 339.7 131.9 339.8 133.3C339.8 133.7 339.8 134.1 339.8 134.5C339.8 134.9 339.8 135.267 339.8 135.6C339.7 137 340.4 138.4 341.6 139.1L345.7 141.5L337.9 155L333.8 152.6C332.5 151.9 331 152 329.9 152.8C329.234 153.2 328.534 153.567 327.8 153.9C326.6 154.6 325.8 155.8 325.8 157.2V162H310.1V157.2C310.1 155.8 309.3 154.6 308.1 153.9C307.367 153.567 306.7 153.2 306.1 152.8C304.9 152 303.4 151.9 302.2 152.6L298 155L290.2 141.5L294.4 139.1C295.6 138.4 296.2 137 296.2 135.6C296.134 135.267 296.1 134.9 296.1 134.5C296.1 134.1 296.134 133.7 296.2 133.3C296.2 131.9 295.6 130.6 294.3 129.9L290.2 127.5L298 113.9L302.1 116.3C303.4 117 304.9 117 306 116.2C306.667 115.734 307.367 115.334 308.1 115C309.3 114.4 310.1 113.1 310.1 111.7V106.9H325.8V111.7C325.8 113.1 326.6 114.4 327.8 115C328.534 115.334 329.234 115.734 329.9 116.2C331 117 332.5 117 333.8 116.3L337.9 113.9L345.7 127.5L341.6 129.9ZM318 121.7C310.9 121.7 305.2 127.4 305.2 134.5C305.2 141.6 310.9 147.3 318 147.3C325.1 147.3 330.8 141.6 330.8 134.5C330.8 127.4 325.1 121.7 318 121.7Z" fill="#EBEBEB"/>
<path d="M91.6998 521.7C65.4998 547.3 61.0998 586.9 66.6998 621.5C66.7998 622.3 67.9998 622.1 67.9998 621.4C67.9998 613.5 67.7998 605.6 67.7998 597.8C67.8998 597.5 68.0998 597.2 68.1998 596.8C74.9998 591.8 81.2998 586.2 85.1998 578.6C89.4998 570 91.2998 560.3 94.5998 551.3C94.8998 550.5 93.9998 550.7 93.3998 551.2C77.4998 562.9 72.3998 575.5 67.8998 592.4C68.0998 583.6 68.7998 574.9 70.5998 566.1C74.0998 550.1 80.8998 534.2 92.3998 522.4C92.7998 521.9 92.0998 521.2 91.6998 521.7Z" fill="#263238"/>
<path d="M96.5999 524.7C101.1 524.8 103.9 532 107.4 534.1C109.3 535.2 111.1 535.1 112.4 533.3C115.8 528.5 111.1 522.5 106.6 519.1C109.8 520.5 112.5 522.8 115.9 523.4C118 523.8 119.6 523 120.1 520.9C121.6 514.3 113.3 511.4 107.7 511.2C110.4 509.3 118.3 504.1 114.1 501.5C109.9 499 100.6 506.4 97.5999 508.9C93.0999 512.5 87.7999 517.9 87.5999 523.5C87.3999 530.1 93.0999 526 96.5999 524.7Z" fill="#B89146"/>
<path opacity="0.1" d="M96.5999 524.7C101.1 524.8 103.9 532 107.4 534.1C109.3 535.2 111.1 535.1 112.4 533.3C115.8 528.5 111.1 522.5 106.6 519.1C109.8 520.5 112.5 522.8 115.9 523.4C118 523.8 119.6 523 120.1 520.9C121.6 514.3 113.3 511.4 107.7 511.2C110.4 509.3 118.3 504.1 114.1 501.5C109.9 499 100.6 506.4 97.5999 508.9C93.0999 512.5 87.7999 517.9 87.5999 523.5C87.3999 530.1 93.0999 526 96.5999 524.7Z" fill="black"/>
<path d="M95.3 525.8C101 523.2 112.1 526.9 113 524.7C114.9 520.3 106.1 517.3 101.3 516.7C105.7 515.5 114.1 513.6 113.9 509.4C113.5 504.2 101 508.7 94.6 513.5C86.6 519.7 86.6 525.6 88 526.8C89.8 528.4 94.3 526.2 95.3 525.8Z" fill="#B89146"/>
<path d="M32.0998 519.1C59.1998 543.7 65.0998 583.1 60.8998 618C60.7998 618.8 59.5998 618.6 59.5998 617.9C59.2998 610 59.1998 602.1 58.8998 594.4C58.6998 594 58.5998 593.7 58.4998 593.3C51.3998 588.6 44.9998 583.3 40.7998 575.7C36.0998 567.3 33.9998 557.7 30.2998 548.9C29.9998 548 30.8998 548.2 31.4998 548.7C47.8998 559.8 53.3998 572.2 58.5998 588.9C58.0998 580.1 57.0998 571.4 54.8998 562.7C50.7998 546.9 43.3998 531.3 31.4998 519.9C30.9998 519.4 31.6998 518.7 32.0998 519.1Z" fill="#263238"/>
<path d="M27.3998 522.3C22.8998 522.6 20.2998 529.9 16.8998 532.2C15.0998 533.3 13.2998 533.3 11.8998 531.6C8.29976 526.9 12.7998 520.7 17.0998 517.2C13.9998 518.6 11.3998 521 7.99976 521.8C5.89976 522.3 4.29976 521.6 3.69976 519.5C1.89976 512.9 10.0998 509.7 15.7998 509.3C12.8998 507.5 4.79976 502.6 8.89976 499.9C13.0998 497.1 22.5998 504.2 25.7998 506.6C30.2998 510 35.7998 515.2 36.2998 520.8C36.7998 527.4 30.8998 523.6 27.3998 522.3Z" fill="#B89146"/>
<path opacity="0.1" d="M27.3998 522.3C22.8998 522.6 20.2998 529.9 16.8998 532.2C15.0998 533.3 13.2998 533.3 11.8998 531.6C8.29976 526.9 12.7998 520.7 17.0998 517.2C13.9998 518.6 11.3998 521 7.99976 521.8C5.89976 522.3 4.29976 521.6 3.69976 519.5C1.89976 512.9 10.0998 509.7 15.7998 509.3C12.8998 507.5 4.79976 502.6 8.89976 499.9C13.0998 497.1 22.5998 504.2 25.7998 506.6C30.2998 510 35.7998 515.2 36.2998 520.8C36.7998 527.4 30.8998 523.6 27.3998 522.3Z" fill="black"/>
<path d="M28.6999 523.4C22.7999 521 11.9999 525.2 10.8999 523C8.8999 518.7 17.5999 515.3 22.2999 514.5C17.8999 513.5 9.3999 511.9 9.4999 507.7C9.5999 502.5 22.3999 506.5 28.8999 511.1C37.1999 517 37.2999 522.9 35.9999 524.1C34.2999 525.8 29.6999 523.8 28.6999 523.4Z" fill="#B89146"/>
<path d="M59.9002 584.1C61.9002 597 64.3002 610.4 68.3002 622.9C68.6002 624 70.3002 623.8 70.2002 622.5C68.4002 610.6 65.1002 598.8 63.4002 586.8C61.5002 574.7 60.6002 562.4 61.3002 550.2C62.4002 530 67.9002 508.5 81.1002 492.7C81.3002 492.4 80.7002 491.8 80.4002 492.2C54.1002 522.9 58.3002 560.6 58.3002 564C54.6002 551.3 50.7002 536.7 36.6002 523.7C36.0002 523.2 35.5002 523.4 35.6002 524.4C38.1002 548 44.7002 560.3 58.4002 572.9C58.8002 576.633 59.3002 580.366 59.9002 584.1Z" fill="#263238"/>
<path d="M81.3001 496.3C86.0001 494.2 92.6001 500.2 97.3001 500.6C99.8001 500.8 101.6 499.9 102 497.3C103.2 490.5 95.2001 486.7 88.9001 485.5C92.9001 485.3 96.8001 486.3 100.7 485.3C103.1 484.6 104.4 483 103.8 480.5C102.1 472.9 92.0001 474 86.0001 476.8C87.9001 473.4 93.5001 464 87.9001 463.5C82.2001 462.9 76.3001 475.3 74.4001 479.4C71.6001 485.4 68.8001 493.6 71.4001 499.6C74.5001 506.5 78.4001 499.4 81.3001 496.3Z" fill="#B89146"/>
<path opacity="0.1" d="M81.3001 496.3C86.0001 494.2 92.6001 500.2 97.3001 500.6C99.8001 500.8 101.6 499.9 102 497.3C103.2 490.5 95.2001 486.7 88.9001 485.5C92.9001 485.3 96.8001 486.3 100.7 485.3C103.1 484.6 104.4 483 103.8 480.5C102.1 472.9 92.0001 474 86.0001 476.8C87.9001 473.4 93.5001 464 87.9001 463.5C82.2001 462.9 76.3001 475.3 74.4001 479.4C71.6001 485.4 68.8001 493.6 71.4001 499.6C74.5001 506.5 78.4001 499.4 81.3001 496.3Z" fill="black"/>
<path d="M80.4999 498.1C85.1999 492.5 98.4999 490.8 98.3999 488.1C98.0999 482.5 87.3999 483.8 82.1999 485.6C86.1999 482.2 93.8999 476 91.4999 471.7C88.5999 466.5 77.7999 477.5 73.5999 485.7C68.3999 496.1 71.4999 502.3 73.3999 502.8C76.0999 503.6 79.6999 499 80.4999 498.1Z" fill="#B89146"/>
<path d="M42.4999 591.2L30.8999 680H101.6C100.2 672.1 86.9999 591.1 86.9999 591.1L42.4999 591.2Z" fill="#B89146"/>
<path d="M0.700195 680.3L104.1 679.8L207.4 679.6L414 679.3L620.6 679.6L723.9 679.8L827.3 680.3L723.9 680.8L620.6 681L414 681.3L207.4 680.9L104.1 680.8L0.700195 680.3Z" fill="#263238"/>
<path d="M712.1 812.1C712.1 835.4 578.6 854.2 414 854.2C249.4 854.2 115.9 835.4 115.9 812.1C115.9 788.8 249.4 769.9 414 769.9C578.6 769.9 712.1 788.8 712.1 812.1Z" fill="#EBEBEB"/>
<path fill-rule="evenodd" clip-rule="evenodd" d="M229.1 369.3L216.7 320.5L118.7 345.4L105.7 294.4L184.1 115.8L222.9 105.9L260.7 254.6L292.1 246.6L305.2 298L273.8 306L286.2 354.8L229.1 369.3ZM161.9 279.7L210.4 267.4L194.4 204.3L161.9 279.7Z" fill="#263238"/>
<path fill-rule="evenodd" clip-rule="evenodd" d="M510 206.2C510 222.4 507.567 237.3 502.7 250.9C497.767 264.567 491 276.367 482.4 286.3C473.867 296.234 463.767 303.967 452.1 309.5C440.433 314.967 427.733 317.7 414 317.7C400.267 317.7 387.5 314.967 375.7 309.5C363.967 303.967 353.8 296.234 345.2 286.3C336.6 276.367 329.9 264.567 325.1 250.9C320.367 237.3 318 222.4 318 206.2C318 190.067 320.367 175.167 325.1 161.5C329.9 147.9 336.6 136.134 345.2 126.2C353.8 116.267 363.967 108.467 375.7 102.8C387.5 97.2004 400.267 94.4004 414 94.4004C427.733 94.4004 440.433 97.2004 452.1 102.8C463.767 108.467 473.867 116.267 482.4 126.2C491 136.134 497.767 147.9 502.7 161.5C507.567 175.167 510 190.067 510 206.2ZM450.8 206.2C450.8 189.067 447.367 175.167 440.5 164.5C433.633 153.834 424.8 148.5 414 148.5C402.733 148.5 393.733 153.834 387 164.5C380.2 175.167 376.8 189.067 376.8 206.2C376.8 223.4 380.2 237.267 387 247.8C393.733 258.334 402.733 263.6 414 263.6C424.8 263.6 433.633 258.334 440.5 247.8C447.367 237.267 450.8 223.4 450.8 206.2Z" fill="#263238"/>
<path fill-rule="evenodd" clip-rule="evenodd" d="M615.7 359.9L623.7 310.2L523.9 294L532.3 242L675.3 109.4L714.9 115.8L690.3 267.3L722.3 272.5L713.8 324.8L681.9 319.6L673.8 369.3L615.7 359.9ZM589.7 251L639.1 259L649.6 194.7L589.7 251Z" fill="#263238"/>
<path fill-rule="evenodd" clip-rule="evenodd" d="M331.4 58.8998C327.133 58.8998 323.3 58.0998 319.9 56.4998C316.5 54.8331 313.567 52.6331 311.1 49.8998C308.633 47.1665 306.733 44.0665 305.4 40.5998C304.067 37.0665 303.4 33.4665 303.4 29.7998C303.4 25.9998 304.1 22.3331 305.5 18.7998C306.967 15.3331 308.933 12.2665 311.4 9.5998C313.933 6.86647 316.933 4.6998 320.4 3.0998C323.8 1.56647 327.533 0.799805 331.6 0.799805C335.733 0.799805 339.5 1.63314 342.9 3.2998C346.367 4.96647 349.3 7.1998 351.7 9.9998C354.1 12.7331 356 15.8331 357.4 19.2998C358.733 22.8331 359.4 26.3998 359.4 29.9998C359.4 33.7998 358.7 37.4331 357.3 40.8998C355.9 44.4331 353.967 47.5331 351.5 50.1998C349.033 52.8665 346.067 54.9665 342.6 56.4998C339.133 58.0998 335.4 58.8998 331.4 58.8998ZM314.7 29.7998C314.7 32.3331 315.067 34.7331 315.8 36.9998C316.6 39.3331 317.7 41.3998 319.1 43.1998C320.567 44.9331 322.333 46.3331 324.4 47.3998C326.467 48.5331 328.8 49.0998 331.4 49.0998C334.133 49.0998 336.533 48.5331 338.6 47.3998C340.667 46.3331 342.4 44.8665 343.8 42.9998C345.267 41.1998 346.367 39.1331 347.1 36.7998C347.833 34.5331 348.2 32.1998 348.2 29.7998C348.2 27.3331 347.8 24.9331 347 22.5998C346.2 20.3331 345.1 18.2998 343.7 16.4998C342.233 14.6998 340.467 13.2998 338.4 12.2998C336.333 11.2331 334 10.6998 331.4 10.6998C328.733 10.6998 326.333 11.2331 324.2 12.2998C322.133 13.4331 320.4 14.8998 319 16.6998C317.6 18.4998 316.533 20.5331 315.8 22.7998C315.067 25.1331 314.7 27.4665 314.7 29.7998Z" fill="#263238"/>
<path fill-rule="evenodd" clip-rule="evenodd" d="M386.5 59.3C383.034 59.3 379.934 58.7 377.2 57.5C374.4 56.3667 372.067 54.7667 370.2 52.7C368.267 50.7 366.8 48.4 365.8 45.8C364.734 43.1333 364.2 40.3333 364.2 37.4C364.2 34.4667 364.734 31.6667 365.8 29C366.8 26.4 368.267 24.0667 370.2 22C372.067 20 374.4 18.4 377.2 17.2C379.934 16.0667 383.034 15.5 386.5 15.5C389.9 15.5 392.967 16.0667 395.7 17.2C398.434 18.4 400.734 20 402.6 22C404.534 24.0667 406.034 26.4 407.1 29C408.1 31.6667 408.6 34.4667 408.6 37.4C408.6 40.3333 408.1 43.1333 407.1 45.8C406.034 48.4 404.567 50.7 402.7 52.7C400.834 54.7667 398.5 56.3667 395.7 57.5C392.967 58.7 389.9 59.3 386.5 59.3ZM375.4 37.4C375.4 39.3333 375.667 41.0667 376.2 42.6C376.8 44.1333 377.6 45.4667 378.6 46.6C379.6 47.7333 380.767 48.6 382.1 49.2C383.434 49.8 384.9 50.1 386.5 50.1C388.034 50.1 389.467 49.8 390.8 49.2C392.134 48.6 393.3 47.7333 394.3 46.6C395.3 45.4667 396.1 44.1 396.7 42.5C397.234 40.9667 397.5 39.2333 397.5 37.3C397.5 35.5 397.234 33.8333 396.7 32.3C396.1 30.7 395.3 29.3333 394.3 28.2C393.3 27.0667 392.134 26.2 390.8 25.6C389.467 25 388.034 24.7 386.5 24.7C384.9 24.7 383.434 25 382.1 25.6C380.767 26.2667 379.6 27.1667 378.6 28.3C377.6 29.4333 376.8 30.7667 376.2 32.3C375.667 33.9 375.4 35.6 375.4 37.4Z" fill="#263238"/>
<path fill-rule="evenodd" clip-rule="evenodd" d="M441.2 59.3C437.867 59.3 434.967 58.5667 432.5 57.1C430.033 55.6333 428.1 53.6333 426.7 51.1V75.7H415.9V16.2H425.3V23.5C426.9 20.9667 428.933 19 431.4 17.6C433.867 16.2 436.7 15.5 439.9 15.5C442.767 15.5 445.433 16.0667 447.9 17.2C450.3 18.3333 452.367 19.9 454.1 21.9C455.833 23.8333 457.2 26.1333 458.2 28.8C459.2 31.4667 459.7 34.3 459.7 37.3C459.7 40.3667 459.267 43.2333 458.4 45.9C457.467 48.6333 456.167 50.9667 454.5 52.9C452.9 54.9 450.967 56.4667 448.7 57.6C446.433 58.7333 443.933 59.3 441.2 59.3ZM437.6 50.1C439.2 50.1 440.7 49.7667 442.1 49.1C443.433 48.3667 444.6 47.4 445.6 46.2C446.533 45.0667 447.3 43.7 447.9 42.1C448.433 40.5667 448.7 38.9667 448.7 37.3C448.7 35.5 448.4 33.8333 447.8 32.3C447.2 30.7667 446.367 29.4333 445.3 28.3C444.233 27.1667 443 26.2667 441.6 25.6C440.133 25 438.567 24.7 436.9 24.7C435.9 24.7 434.867 24.8667 433.8 25.2C432.733 25.5333 431.733 26.0333 430.8 26.7C429.867 27.3667 429.033 28.1 428.3 28.9C427.567 29.7667 427.033 30.7333 426.7 31.8V41.7C427.633 44.1 429.1 46.1 431.1 47.7C433.1 49.3 435.267 50.1 437.6 50.1Z" fill="#263238"/>
<path d="M483.1 59.3004C479.5 59.3004 476.033 58.7337 472.7 57.6004C469.3 56.4671 466.367 54.8671 463.9 52.8004L468 46.0004C470.533 47.8004 473.033 49.2004 475.5 50.2004C477.967 51.1337 480.4 51.6004 482.8 51.6004C485 51.6004 486.7 51.2004 487.9 50.4004C489.167 49.5337 489.8 48.367 489.8 46.9004C489.8 45.367 489.067 44.2671 487.6 43.6004C486.133 42.8671 483.767 42.0337 480.5 41.1004C477.767 40.3671 475.433 39.6671 473.5 39.0004C471.567 38.2671 470 37.4671 468.8 36.6004C467.6 35.6671 466.733 34.6337 466.2 33.5004C465.667 32.3671 465.4 31.0004 465.4 29.4004C465.4 27.2004 465.8 25.2337 466.6 23.5004C467.467 21.7671 468.667 20.3004 470.2 19.1004C471.667 17.9004 473.4 16.9671 475.4 16.3004C477.467 15.7004 479.667 15.4004 482 15.4004C485.2 15.4004 488.2 15.8337 491 16.7004C493.733 17.6337 496.267 19.1337 498.6 21.2004L494.2 27.7004C492.067 26.1004 490 24.9337 488 24.2004C485.933 23.4004 483.9 23.0004 481.9 23.0004C480.1 23.0004 478.567 23.4004 477.3 24.2004C476.1 24.9337 475.5 26.1337 475.5 27.8004C475.5 28.5337 475.633 29.1671 475.9 29.7004C476.233 30.1671 476.7 30.6004 477.3 31.0004C477.967 31.3337 478.833 31.7004 479.9 32.1004C480.967 32.4337 482.267 32.7671 483.8 33.1004C486.733 33.9004 489.233 34.6671 491.3 35.4004C493.367 36.1337 495.067 37.0004 496.4 38.0004C497.667 39.0004 498.633 40.1004 499.3 41.3004C499.9 42.5671 500.2 44.1004 500.2 45.9004C500.2 50.0337 498.667 53.3004 495.6 55.7004C492.533 58.1004 488.367 59.3004 483.1 59.3004Z" fill="#263238"/>
<path d="M509.3 36.8996V0.599609H520.2V36.8996H509.3ZM509.3 58.4996V46.2996H520.1V58.4996H509.3Z" fill="#263238"/>
<path d="M455.2 547.5H384.2V541.7H455.2V547.5Z" fill="#37474F"/>
<path d="M455.2 555.1H384.2V549.3H455.2V555.1Z" fill="#37474F"/>
<path d="M455.2 562.7H384.2V556.8H455.2V562.7Z" fill="#37474F"/>
<path d="M455.2 570.2H384.2V564.4H455.2V570.2Z" fill="#37474F"/>
<path d="M455.2 577.8H384.2V572H455.2V577.8Z" fill="#37474F"/>
<path d="M485.9 729H350.9V723.2H485.9V729Z" fill="#37474F"/>
<path d="M485.9 736.6H350.9V730.8H485.9V736.6Z" fill="#37474F"/>
<path d="M485.9 744.2H350.9V738.3H485.9V744.2Z" fill="#37474F"/>
<path d="M485.9 751.7H350.9V745.9H485.9V751.7Z" fill="#37474F"/>
<path d="M485.9 759.3H350.9V753.5H485.9V759.3Z" fill="#37474F"/>
<path d="M291.7 493.6C291.7 492.8 262.1 482.9 262.1 482.9L263.9 381.1L303.1 372.7L291.7 493.6Z" fill="#B89146"/>
<path opacity="0.2" d="M291.7 493.6C291.7 492.8 262.1 482.9 262.1 482.9L263.9 381.1L303.1 372.7L291.7 493.6Z" fill="black"/>
<path d="M563 533.5C563.2 532.8 594.4 533.7 594.4 533.7L627.8 437.5L593.8 416.1L563 533.5Z" fill="#B89146"/>
<path opacity="0.2" d="M563 533.5C563.2 532.8 594.4 533.7 594.4 533.7L627.8 437.5L593.8 416.1L563 533.5Z" fill="black"/>
<path d="M286 531.1C286 531.1 296.9 366.5 306.6 312.3C306.6 312.3 505.4 327.4 612.8 368.4C612.8 368.4 557.4 560.6 554.6 570.2C554.6 570.2 414.5 542.6 286 531.1Z" fill="#B89146"/>
<path opacity="0.1" d="M463.4 334.3C460.2 354.1 456.9 373.9 453.6 393.7L443.3 453.1L442.8 452.3L509.4 468.1L542.7 476.1L575.9 484.4L542.5 476.9L509.1 469.3L442.4 453.7L441.7 453.5L441.9 452.8L452.5 393.5C456 373.8 459.7 354 463.4 334.3Z" fill="black"/>
<path opacity="0.1" fill-rule="evenodd" clip-rule="evenodd" d="M456.1 345.6C456.2 347.4 454.7 349.3 452.6 349.5C451.6 349.6 450.5 349.2 449.7 348.5C448.9 347.8 448.4 346.7 448.4 345.6C448.4 344.5 448.9 343.4 449.7 342.7C450.5 342 451.6 341.6 452.6 341.7C454.7 341.9 456.2 343.8 456.1 345.6ZM456.1 345.6C456.1 344.7 455.7 343.8 455 343.2C454.4 342.6 453.5 342.4 452.6 342.5C451 342.7 449.9 344.2 449.9 345.6C449.9 347 451 348.5 452.6 348.7C453.5 348.8 454.4 348.6 455 348C455.7 347.4 456.1 346.5 456.1 345.6Z" fill="black"/>
<path opacity="0.1" fill-rule="evenodd" clip-rule="evenodd" d="M452.6 370.1C452.7 371.9 451.2 373.8 449.2 374C448.1 374.1 447 373.7 446.2 373C445.4 372.3 444.9 371.2 444.9 370.1C444.9 369 445.4 367.9 446.2 367.2C447 366.5 448.1 366.1 449.2 366.2C451.2 366.4 452.7 368.3 452.6 370.1ZM452.6 370.1C452.6 369.2 452.2 368.3 451.5 367.7C450.9 367.1 450 366.9 449.2 367C447.5 367.2 446.4 368.7 446.4 370.1C446.4 371.5 447.5 373 449.2 373.2C450 373.3 450.9 373.1 451.5 372.5C452.2 371.9 452.6 371 452.6 370.1Z" fill="black"/>
<path opacity="0.1" fill-rule="evenodd" clip-rule="evenodd" d="M448.3 396C448.4 397.8 446.9 399.7 444.9 399.8C443.8 399.9 442.7 399.6 441.9 398.9C441.1 398.2 440.6 397.1 440.6 396C440.6 394.9 441.1 393.8 441.9 393C442.7 392.3 443.8 392 444.9 392.1C446.9 392.3 448.4 394.2 448.3 396ZM448.3 396C448.3 395.1 447.9 394.2 447.2 393.6C446.6 393 445.7 392.8 444.9 392.9C443.2 393.1 442.1 394.6 442.1 396C442.1 397.4 443.2 398.9 444.9 399.1C445.7 399.2 446.6 398.9 447.2 398.4C447.9 397.8 448.3 396.9 448.3 396Z" fill="black"/>
<path opacity="0.1" fill-rule="evenodd" clip-rule="evenodd" d="M444 421.9C444.1 423.7 442.6 425.5 440.6 425.7C439.5 425.8 438.4 425.5 437.6 424.8C436.8 424.1 436.3 423 436.3 421.9C436.3 420.7 436.8 419.6 437.6 418.9C438.4 418.2 439.5 417.9 440.6 418C442.6 418.2 444.1 420 444 421.9ZM444 421.9C444 420.9 443.6 420 442.9 419.5C442.3 418.9 441.4 418.6 440.6 418.7C438.9 418.9 437.8 420.4 437.8 421.9C437.8 423.3 438.9 424.8 440.6 425C441.4 425.1 442.3 424.8 442.9 424.2C443.6 423.7 444 422.8 444 421.9Z" fill="black"/>
<path opacity="0.1" fill-rule="evenodd" clip-rule="evenodd" d="M458.7 463.1C458.7 464.9 457.3 466.8 455.2 467C454.2 467.1 453.1 466.8 452.3 466C451.5 465.3 451 464.2 451 463.1C451 462 451.5 460.9 452.3 460.2C453.1 459.5 454.2 459.2 455.2 459.3C457.3 459.4 458.7 461.3 458.7 463.1ZM458.7 463.1C458.7 462.2 458.3 461.3 457.6 460.7C456.9 460.1 456 459.9 455.2 460C453.5 460.2 452.4 461.7 452.5 463.1C452.4 464.5 453.5 466 455.2 466.2C456 466.3 456.9 466.1 457.6 465.5C458.3 464.9 458.7 464 458.7 463.1Z" fill="black"/>
<path opacity="0.1" fill-rule="evenodd" clip-rule="evenodd" d="M483.1 469.1C483.2 470.9 481.7 472.8 479.6 472.9C478.6 473 477.5 472.7 476.7 472C475.9 471.3 475.4 470.2 475.4 469.1C475.4 468 475.9 466.9 476.7 466.2C477.5 465.4 478.6 465.1 479.6 465.2C481.7 465.4 483.2 467.3 483.1 469.1ZM483.1 469.1C483.1 468.2 482.7 467.3 482 466.7C481.3 466.1 480.4 465.9 479.6 466C478 466.2 476.9 467.7 476.9 469.1C476.9 470.5 477.9 472 479.6 472.2C480.4 472.3 481.3 472.1 482 471.5C482.7 470.9 483.1 470 483.1 469.1Z" fill="black"/>
<path opacity="0.1" fill-rule="evenodd" clip-rule="evenodd" d="M507.5 475C507.6 476.9 506.1 478.7 504.1 478.9C503 479 502 478.7 501.1 478C500.3 477.2 499.8 476.1 499.8 475C499.8 473.9 500.3 472.8 501.1 472.1C501.9 471.4 503 471.1 504.1 471.2C506.1 471.4 507.6 473.2 507.5 475ZM507.5 475C507.5 474.1 507.1 473.2 506.5 472.6C505.8 472.1 504.9 471.8 504.1 471.9C502.4 472.1 501.3 473.6 501.3 475C501.3 476.5 502.4 478 504.1 478.2C504.9 478.2 505.8 478 506.5 477.4C507.1 476.9 507.5 476 507.5 475Z" fill="black"/>
<path opacity="0.1" fill-rule="evenodd" clip-rule="evenodd" d="M532 481C532 482.8 530.6 484.7 528.5 484.9C527.5 485 526.4 484.6 525.6 483.9C524.7 483.2 524.2 482.1 524.2 481C524.2 479.9 524.7 478.8 525.6 478.1C526.4 477.4 527.5 477 528.5 477.1C530.6 477.3 532 479.2 532 481ZM532 481C532 480.1 531.6 479.2 530.9 478.6C530.2 478 529.3 477.8 528.5 477.9C526.8 478.1 525.7 479.6 525.7 481C525.7 482.4 526.8 483.9 528.5 484.1C529.3 484.2 530.2 484 530.9 483.4C531.6 482.8 532 481.9 532 481Z" fill="black"/>
<path opacity="0.1" fill-rule="evenodd" clip-rule="evenodd" d="M556.4 487.2C556.3 489 554.7 490.8 552.6 490.8C551.6 490.8 550.5 490.4 549.8 489.6C549 488.9 548.6 487.7 548.7 486.6C548.8 485.5 549.3 484.5 550.2 483.8C551.1 483.2 552.2 482.9 553.2 483.1C555.3 483.4 556.6 485.4 556.4 487.2ZM556.4 487.2C556.5 486.3 556.1 485.4 555.5 484.8C554.8 484.1 554 483.8 553.1 483.9C551.5 483.9 550.3 485.3 550.2 486.7C550 488.2 551 489.7 552.7 490.1C553.5 490.2 554.4 490.1 555.1 489.5C555.8 489 556.3 488.1 556.4 487.2Z" fill="black"/>
<path opacity="0.1" fill-rule="evenodd" clip-rule="evenodd" d="M439.7 447.7C439.8 449.5 438.3 451.4 436.3 451.6C435.2 451.7 434.1 451.4 433.3 450.7C432.5 449.9 432 448.8 432 447.7C432 446.6 432.5 445.5 433.3 444.8C434.1 444.1 435.2 443.8 436.3 443.9C438.3 444 439.8 445.9 439.7 447.7ZM439.7 447.7C439.7 446.8 439.3 445.9 438.6 445.3C438 444.8 437.1 444.5 436.3 444.6C434.6 444.8 433.5 446.3 433.5 447.7C433.5 449.1 434.6 450.7 436.3 450.8C437.1 450.9 438 450.7 438.6 450.1C439.3 449.5 439.7 448.6 439.7 447.7Z" fill="black"/>
<path opacity="0.2" d="M416.6 457.6C411.6 488.4 382.6 509.3 351.8 504.4C321.1 499.4 300.1 470.4 305.1 439.6C310.1 408.8 339.1 387.9 369.9 392.9C400.7 397.9 421.6 426.9 416.6 457.6Z" fill="black"/>
<path d="M405.6 455.9C401.6 480.5 378.3 497.3 353.6 493.3C328.9 489.3 312.2 466.1 316.2 441.4C320.2 416.7 343.4 399.9 368.1 403.9C392.8 407.9 409.6 431.2 405.6 455.9Z" fill="#263238"/>
<path d="M356.4 442.6L345.8 440.9L347.5 430.3L358.1 432L356.4 442.6Z" fill="#B89146"/>
<path d="M347.5 430.3L337 428.6L338.7 418L349.3 419.7L347.5 430.3Z" fill="#B89146"/>
<path d="M389.9 437.1L379.3 435.4L381 424.8L391.6 426.6L389.9 437.1Z" fill="#B89146"/>
<path d="M340.7 472.4L330.1 470.7L331.8 460.1L342.4 461.8L340.7 472.4Z" fill="#B89146"/>
<path d="M383.1 479.3L372.5 477.5L374.2 467L384.8 468.7L383.1 479.3Z" fill="#B89146"/>
<path d="M353 463.5L342.4 461.8L344.2 451.2L354.7 452.9L353 463.5Z" fill="#B89146"/>
<path d="M365.3 454.8L354.7 453.1L356.4 442.5L367 444.2L365.3 454.8Z" fill="#B89146"/>
<path d="M377.6 446L367 444.3L368.7 433.7L379.3 435.4L377.6 446Z" fill="#B89146"/>
<path d="M374.2 467L363.6 465.2L365.3 454.6L375.9 456.4L374.2 467Z" fill="#B89146"/>
<path d="M567.3 485.3C560.1 515.7 529.7 534.4 499.3 527.2C469 520 450.2 489.6 457.5 459.2C464.7 428.9 495.1 410.1 525.4 417.3C555.8 424.6 574.5 455 567.3 485.3Z" fill="#B89146"/>
<path opacity="0.2" d="M567.3 485.3C560.1 515.7 529.7 534.4 499.3 527.2C469 520 450.2 489.6 457.5 459.2C464.7 428.9 495.1 410.1 525.4 417.3C555.8 424.6 574.5 455 567.3 485.3Z" fill="black"/>
<path opacity="0.2" d="M567.3 485.3C567.033 486.433 566.733 487.533 566.4 488.6L456.4 465.1C456.667 463.167 457 461.2 457.4 459.2C464.7 428.9 495.1 410.1 525.4 417.3C555.8 424.6 574.5 455 567.3 485.3Z" fill="black"/>
<path d="M556.4 482.7C550.7 507.1 526.2 522.1 501.9 516.3C477.6 510.6 462.5 486.1 468.3 461.8C474.1 437.5 498.5 422.4 522.9 428.2C547.2 434 562.2 458.4 556.4 482.7Z" fill="#263238"/>
<path d="M511.4 499.5L501 497L513.3 445.1L523.8 447.6L511.4 499.5Z" fill="#B89146"/>
<path d="M570.6 484.3L455 456.8C462.6 424.9 494.6 405.2 526.5 412.8C558.4 420.3 578.2 452.4 570.6 484.3Z" fill="#B89146"/>
<path opacity="0.2" d="M570.6 484.3L455 456.8C462.6 424.9 494.6 405.2 526.5 412.8C558.4 420.3 578.2 452.4 570.6 484.3Z" fill="black"/>
<path opacity="0.1" d="M414.1 505.8C414.4 501.3 416.1 496.8 419.4 493.1C421 491.3 423.1 489.9 425.5 489C427.9 488.1 430.5 488 432.9 488.2C435.4 488.5 437.9 489.3 440 490.9C442 492.5 443.6 494.6 444.5 496.8C446.4 501.3 446.6 506.1 445.7 510.5C444.9 506.1 443.8 501.8 441.7 498.3C439.6 494.7 436.4 492.5 432.5 492.1C428.5 491.7 424.6 492.7 421.5 495.4C418.4 498 416 501.8 414.1 505.8Z" fill="black"/>
<path d="M301.4 390.7C301.9 384.6 302.6 378.6 303.2 372.6C303.8 366.6 304.467 360.6 305.2 354.6C305.9 348.6 306.7 342.6 307.4 336.6C308.2 330.6 309 324.7 309.9 318.7L310.1 317.1L311.7 317.2C324.7 318 337.7 319.066 350.7 320.4C357.167 321.066 363.633 321.8 370.1 322.6C376.6 323.6 383.1 324.4 389.5 325.6L350.5 323.2L311.5 320.7L313.3 319.2C312.4 325.1 311.6 331.1 310.7 337.1C309.7 343.1 308.8 349 307.8 355C306.867 360.933 305.867 366.9 304.8 372.9C303.7 378.8 302.7 384.8 301.4 390.7Z" fill="white"/>
<path d="M310.8 436.3C312.1 429.1 315.4 422.1 319.9 416.1C321 414.6 322.2 413.2 323.4 411.8C324.7 410.4 326.1 409.1 327.4 407.8C328.866 406.6 330.366 405.434 331.9 404.3C333.5 403.3 335 402.2 336.6 401.3C338.4 400.4 340.1 399.6 341.8 398.8L347.1 397L352.7 395.8C354.6 395.5 356.4 395.5 358.3 395.3C365.8 395.2 373.3 396.8 380.1 399.5C372.8 398.2 365.6 397.4 358.5 398.1C351.4 398.7 344.5 400.9 338.4 404.3C332.1 407.7 326.6 412.4 322 417.8C317.4 423.3 313.5 429.5 310.8 436.3Z" fill="white"/>
<path d="M466.6 451.6C468.9 444.6 473.1 438.2 478.3 432.8C479.6 431.5 481 430.3 482.4 429C483.9 427.9 485.4 426.7 487 425.6C488.6 424.667 490.2 423.734 491.8 422.8C493.5 422 495.3 421.2 497 420.4C498.8 419.8 500.6 419.2 502.4 418.7L508 417.6L513.6 417.2C515.5 417.2 517.4 417.4 519.3 417.6C526.8 418.4 533.9 421 540.2 424.7C533.2 422.3 526.2 420.6 519.1 420.3C512 420 504.8 421.1 498.3 423.7C491.6 426.2 485.5 430.1 480.2 434.8C474.9 439.6 470.2 445.2 466.6 451.6Z" fill="white"/>
<path d="M292.3 632.5C277.8 632.5 246.2 629.3 225.8 603.1C199.7 569.5 209.1 505.2 209.5 502.5L220.9 504.2C220.8 504.8 211.8 566.4 234.8 596C257.3 625 298.2 620.8 298.6 620.8L299.9 632.2C299.4 632.2 296.6 632.5 292.3 632.5Z" fill="#B89146"/>
<path opacity="0.4" d="M292.3 632.5C277.8 632.5 246.2 629.3 225.8 603.1C199.7 569.5 209.1 505.2 209.5 502.5L220.9 504.2C220.8 504.8 211.8 566.4 234.8 596C257.3 625 298.2 620.8 298.6 620.8L299.9 632.2C299.4 632.2 296.6 632.5 292.3 632.5Z" fill="white"/>
<path d="M224.2 512C222.133 512 220.033 511.834 217.9 511.5C198.8 508.4 190.3 497 186.6 487.9C182.9 478.9 182 467.9 184 455.4L208.2 459.3C207 467.1 207.4 473.9 209.3 478.6C210.7 481.9 213.3 485.9 221.8 487.3C225.7 487.9 229.9 487.6 234.3 481C237.6 475.8 239.7 468.9 240.4 464.5L264.6 468.4C264 471.9 261.7 484 254.7 494.5C247.1 505.9 236.4 512 224.2 512Z" fill="#B89146"/>
<path d="M316.2 665.3C316.2 664.7 295.7 661.5 295.7 661.5L285.8 594.7L310.5 584.9L316.2 665.3Z" fill="#B89146"/>
<path opacity="0.2" d="M316.2 665.3C316.2 664.7 295.7 661.5 295.7 661.5L285.8 594.7L310.5 584.9L316.2 665.3Z" fill="black"/>
<path d="M518.6 665.4C518.6 664.9 539.2 662.1 539.2 662.1L550.6 595.5L526 585.1L518.6 665.4Z" fill="#B89146"/>
<path opacity="0.2" d="M518.6 665.4C518.6 664.9 539.2 662.1 539.2 662.1L550.6 595.5L526 585.1L518.6 665.4Z" fill="black"/>
<path d="M307.7 569.9C307.7 569.9 473.3 562.8 529.2 572.2C529.2 572.2 512.8 732.4 511.9 735.5C511.9 735.5 347.2 735 321.4 735.5C321.4 735.5 307.5 628.9 307.7 569.9Z" fill="#B89146"/>
<path opacity="0.2" d="M358 613.8C358 613.8 448.4 610.2 478.9 614.9C478.9 614.9 469.9 695.7 469.4 697.3C469.4 697.3 379.5 697.1 365.5 697.3C365.5 697.3 359.3 642 358 613.8Z" fill="black"/>
<path opacity="0.2" d="M370.3 697.3C368.3 697.3 366.6 697.3 365.5 697.3C365.5 697.3 359.3 642 358 613.8C358 613.8 360 613.7 363.6 613.6L370.3 697.3Z" fill="black"/>
<path fill-rule="evenodd" clip-rule="evenodd" d="M413.4 649C410.1 659.7 398.7 665.6 388 662.2C377.3 658.9 371.4 647.5 374.8 636.8C378.1 626.2 389.5 620.2 400.2 623.6C410.9 627 416.8 638.3 413.4 649ZM397.4 632.3C391.6 630.5 385.3 633.7 383.5 639.6C381.7 645.4 384.9 651.7 390.8 653.5C396.6 655.4 402.8 652.1 404.7 646.3C406.5 640.4 403.3 634.2 397.4 632.3Z" fill="#B89146"/>
<path d="M392 662.6L384.5 660.3L383.3 665.7L389.9 667.7L392 662.6Z" fill="#B89146"/>
<path d="M378.6 655.6L375 648.7L370.3 651.7L373.5 657.8L378.6 655.6Z" fill="#B89146"/>
<path d="M374.1 641.3L376.4 633.9L371.1 632.6L369 639.2L374.1 641.3Z" fill="#B89146"/>
<path d="M381.1 627.9L388 624.3L385 619.6L378.9 622.8L381.1 627.9Z" fill="#B89146"/>
<path d="M395.4 623.4L402.9 625.7L404.1 620.4L397.5 618.3L395.4 623.4Z" fill="#B89146"/>
<path d="M408.8 630.4L412.4 637.3L417.1 634.3L413.9 628.2L408.8 630.4Z" fill="#B89146"/>
<path d="M413.3 644.7L411 652.2L416.3 653.4L418.4 646.8L413.3 644.7Z" fill="#B89146"/>
<path d="M406.3 658.1L399.4 661.7L402.4 666.4L408.5 663.2L406.3 658.1Z" fill="#B89146"/>
<path fill-rule="evenodd" clip-rule="evenodd" d="M437.6 674.9C433.5 681.2 425 683 418.7 678.9C412.4 674.8 410.6 666.3 414.7 660C418.8 653.7 427.3 651.9 433.6 656C439.9 660.1 441.7 668.6 437.6 674.9ZM430.2 661.2C426.8 658.9 422.1 659.9 419.9 663.4C417.6 666.8 418.6 671.5 422.1 673.7C425.5 676 430.2 675 432.4 671.5C434.7 668.1 433.7 663.4 430.2 661.2Z" fill="#DBDBDB"/>
<path d="M421.2 679.8L416.8 677L415 680.2L418.9 682.8L421.2 679.8Z" fill="#DBDBDB"/>
<path d="M413.8 672.9L412.7 667.8L409.1 668.8L410.1 673.4L413.8 672.9Z" fill="#DBDBDB"/>
<path d="M413.5 662.8L416.3 658.4L413.1 656.6L410.5 660.5L413.5 662.8Z" fill="#DBDBDB"/>
<path d="M420.4 655.4L425.5 654.3L424.5 650.7L419.9 651.7L420.4 655.4Z" fill="#DBDBDB"/>
<path d="M430.5 655L434.9 657.9L436.7 654.6L432.8 652.1L430.5 655Z" fill="#DBDBDB"/>
<path d="M437.9 662L439 667.1L442.6 666L441.6 661.5L437.9 662Z" fill="#DBDBDB"/>
<path d="M438.3 672.1L435.4 676.5L438.7 678.3L441.2 674.4L438.3 672.1Z" fill="#DBDBDB"/>
<path d="M431.3 679.5L426.2 680.6L427.3 684.2L431.8 683.2L431.3 679.5Z" fill="#DBDBDB"/>
<path d="M525.2 716.8L531.6 718L549.8 594.8L542.5 593.4L525.2 716.8Z" fill="#B89146"/>
<path d="M469.4 697.3L478.9 614.9L542.5 593.4C542.5 593.4 525.2 718.2 525.2 716.8L469.4 697.3Z" fill="#B89146"/>
<path opacity="0.4" d="M469.4 697.3L478.9 614.9L542.5 593.4C542.5 593.4 525.2 718.2 525.2 716.8L469.4 697.3Z" fill="white"/>
<path d="M315.3 618.3C314.2 611.5 313.7 604.6 313.3 597.7C313.1 594.3 313 590.8 312.9 587.4C312.8 583.9 312.8 580.5 312.9 577V576.1H313.8C326.4 575.4 339 574.5 351.7 574C364.3 573.4 377 572.8 389.6 572.4C377 573.5 364.4 574.5 351.8 575.4C339.2 576.4 326.5 577.1 313.9 578L314.8 577V587.3L314.9 597.6C314.9 601.067 314.967 604.5 315.1 607.9L315.3 618.3Z" fill="white"/>
<path d="M487.8 616.2C491.733 614.267 495.733 612.5 499.8 610.9C503.8 609.3 507.866 607.767 512 606.3C516.1 604.9 520.3 603.5 524.5 602.3C528.7 601.2 532.9 600.1 537.3 599.4L538.3 599.2L538.1 600.2C537.1 605.5 536.1 610.9 534.9 616.2C535.3 610.7 536 605.3 536.7 600L537.5 600.8C533.3 601.8 529.2 603 525 604.2C520.866 605.467 516.733 606.767 512.6 608.1L487.8 616.2Z" fill="white"/>
<path opacity="0.1" d="M342.8 570.2L343.9 590.8L344.8 611.4L346.4 652.7L347.6 693.9L348.1 714.5L348.5 735.1L347.4 714.5L346.5 693.9L344.9 652.7L343.6 611.5L343.1 590.9L342.8 570.2Z" fill="black"/>
<path opacity="0.1" fill-rule="evenodd" clip-rule="evenodd" d="M336.9 582.7C337.3 584.4 336.3 586.6 334.2 587.1C333.3 587.4 332.1 587.3 331.2 586.8C330.3 586.3 329.6 585.3 329.3 584.2C329.1 583.1 329.4 581.9 330 581.1C330.7 580.2 331.7 579.7 332.7 579.6C334.8 579.3 336.6 580.9 336.9 582.7ZM336.9 582.7C336.7 581.8 336.1 581 335.4 580.5C334.6 580.1 333.6 580 332.9 580.3C331.3 580.8 330.5 582.5 330.8 583.9C331 585.3 332.4 586.6 334.1 586.4C334.9 586.3 335.8 585.9 336.3 585.2C336.9 584.5 337.1 583.6 336.9 582.7Z" fill="black"/>
<path opacity="0.1" fill-rule="evenodd" clip-rule="evenodd" d="M338.3 607.4C338.7 609.1 337.7 611.2 335.7 611.8C334.7 612.1 333.6 612 332.6 611.5C331.7 611 331 610 330.7 608.9C330.5 607.8 330.8 606.6 331.5 605.8C332.1 604.9 333.1 604.4 334.1 604.3C336.2 604 338 605.6 338.3 607.4ZM338.3 607.4C338.1 606.5 337.6 605.7 336.8 605.2C336 604.8 335.1 604.7 334.3 605C332.7 605.5 331.9 607.2 332.2 608.6C332.5 610 333.8 611.3 335.5 611.1C336.3 611 337.2 610.6 337.7 609.9C338.3 609.2 338.5 608.3 338.3 607.4Z" fill="black"/>
<path opacity="0.1" fill-rule="evenodd" clip-rule="evenodd" d="M339.2 633.6C339.6 635.3 338.6 637.5 336.6 638.1C335.6 638.3 334.5 638.2 333.5 637.7C332.6 637.2 331.9 636.2 331.6 635.1C331.4 634 331.7 632.8 332.4 632C333 631.1 334 630.6 335 630.5C337.1 630.2 338.9 631.8 339.2 633.6ZM339.2 633.6C339 632.7 338.5 631.9 337.7 631.4C336.9 631 336 631 335.2 631.2C333.6 631.7 332.8 633.4 333.1 634.8C333.4 636.2 334.7 637.5 336.4 637.3C337.2 637.3 338.1 636.8 338.6 636.1C339.2 635.4 339.4 634.5 339.2 633.6Z" fill="black"/>
<path opacity="0.1" fill-rule="evenodd" clip-rule="evenodd" d="M340.1 659.8C340.5 661.6 339.5 663.7 337.5 664.3C336.5 664.6 335.4 664.5 334.4 663.9C333.5 663.4 332.8 662.4 332.5 661.3C332.3 660.2 332.6 659.1 333.3 658.2C333.9 657.3 334.9 656.8 335.9 656.7C338 656.5 339.8 658 340.1 659.8ZM340.1 659.8C339.9 658.9 339.4 658.1 338.6 657.7C337.8 657.2 336.9 657.2 336.1 657.4C334.5 658 333.7 659.6 334 661C334.3 662.4 335.6 663.7 337.3 663.5C338.1 663.5 339 663.1 339.5 662.4C340.1 661.7 340.3 660.7 340.1 659.8Z" fill="black"/>
<path opacity="0.1" fill-rule="evenodd" clip-rule="evenodd" d="M341 686C341.4 687.8 340.4 689.9 338.4 690.5C337.4 690.8 336.3 690.7 335.3 690.1C334.4 689.6 333.7 688.6 333.4 687.5C333.2 686.4 333.5 685.3 334.2 684.4C334.8 683.5 335.8 683 336.8 682.9C338.9 682.7 340.7 684.2 341 686ZM341 686C340.8 685.1 340.3 684.3 339.5 683.9C338.7 683.4 337.8 683.4 337 683.6C335.4 684.2 334.6 685.9 334.9 687.2C335.2 688.6 336.5 689.9 338.2 689.8C339 689.7 339.9 689.3 340.4 688.6C341 687.9 341.2 686.9 341 686Z" fill="black"/>
<path opacity="0.1" fill-rule="evenodd" clip-rule="evenodd" d="M341.9 712.2C342.3 714 341.3 716.1 339.3 716.7C338.3 717 337.2 716.9 336.2 716.4C335.3 715.8 334.6 714.8 334.3 713.8C334.1 712.7 334.4 711.5 335.1 710.6C335.7 709.8 336.7 709.2 337.7 709.1C339.8 708.9 341.6 710.4 341.9 712.2ZM341.9 712.2C341.7 711.3 341.2 710.5 340.4 710.1C339.6 709.7 338.7 709.6 337.9 709.9C336.3 710.4 335.5 712.1 335.8 713.5C336.1 714.8 337.4 716.1 339.1 716C339.9 715.9 340.8 715.5 341.3 714.8C341.9 714.1 342.1 713.1 341.9 712.2Z" fill="black"/>
<path d="M259.6 791.7L256.3 780.7L350.1 752.3L353.4 763.3L259.6 791.7Z" fill="#B89146"/>
<path opacity="0.4" d="M259.6 791.7L256.3 780.7L350.1 752.3L353.4 763.3L259.6 791.7Z" fill="white"/>
<path d="M299.4 781.8L294.2 765.6L305.1 762.2L310.3 778.4L299.4 781.8Z" fill="#B89146"/>
<path d="M258.9 807.7L234.7 703L161.6 720.3L197.6 822.4L258.9 807.7Z" fill="#B89146"/>
<path d="M275.1 802.4L258.9 807.7L234.7 703L258 708.5L275.1 802.4Z" fill="#B89146"/>
<path opacity="0.2" d="M275.1 802.4L258.9 807.7L234.7 703L258 708.5L275.1 802.4Z" fill="black"/>
<path d="M364.1 757.8C364.1 764.7 358.6 770.2 351.7 770.2C344.9 770.2 339.3 764.7 339.3 757.8C339.3 750.9 344.9 745.4 351.7 745.4C358.6 745.4 364.1 750.9 364.1 757.8Z" fill="#B89146"/>
<path d="M570 791.6L476.3 763L479.6 752L573.3 780.6L570 791.6Z" fill="#B89146"/>
<path opacity="0.4" d="M570 791.6L476.3 763L479.6 752L573.3 780.6L570 791.6Z" fill="white"/>
<path d="M530.2 781.7L519.3 778.2L524.5 762L535.4 765.5L530.2 781.7Z" fill="#B89146"/>
<path d="M570.7 807.6L595.1 702.9L668.1 720.4L631.9 822.4L570.7 807.6Z" fill="#B89146"/>
<path d="M554.5 802.3L570.7 807.6L595.1 702.9L571.8 708.4L554.5 802.3Z" fill="#B89146"/>
<path opacity="0.2" d="M554.5 802.3L570.7 807.6L595.1 702.9L571.8 708.4L554.5 802.3Z" fill="black"/>
<path d="M465.5 757.5C465.5 764.3 471.1 769.9 477.9 769.9C484.8 769.9 490.4 764.4 490.4 757.5C490.4 750.7 484.8 745.1 478 745.1C471.1 745.1 465.5 750.6 465.5 757.5Z" fill="#B89146"/>
<path d="M559.3 628.3C559.6 628 589.7 600.1 625.2 609.6C661.4 619.4 691.3 673.9 691.6 674.5L701.7 669.1C700.3 666.6 669.1 609.6 628.1 598.6C586.4 587.3 552.8 618.6 551.4 620L559.3 628.3Z" fill="#B89146"/>
<path opacity="0.4" d="M559.3 628.3C559.6 628 589.7 600.1 625.2 609.6C661.4 619.4 691.3 673.9 691.6 674.5L701.7 669.1C700.3 666.6 669.1 609.6 628.1 598.6C586.4 587.3 552.8 618.6 551.4 620L559.3 628.3Z" fill="white"/>
<path d="M678.2 729.4L699.9 718C697.8 714 695.3 707.3 694.9 701.1C694.4 693.2 697.6 690.4 701 688.6C708.6 684.6 713.2 686.2 716.3 688C720.6 690.6 725 695.8 728.7 702.8L750.4 691.3C744.5 680.1 737.2 671.8 728.7 666.9C720.3 661.9 706.7 657.9 689.6 666.9C676.3 673.9 669.5 686.6 670.4 702.6C671.2 715.2 676.6 726.3 678.2 729.4Z" fill="#B89146"/>
<path d="M563.9 590C568.6 586.8 573.4 583.7 578.2 580.7C583.1 577.7 588 574.7 592.9 571.8C597.8 568.9 602.7 566.1 607.7 563.3L615.2 559.2C617.8 557.9 620.3 556.6 622.8 555.3C620.5 557 618.1 558.5 615.7 560.1L608.5 564.7C603.7 567.7 598.8 570.6 593.9 573.5C588.9 576.4 584 579.3 579 582C574 584.8 569 587.5 563.9 590Z" fill="#263238"/>
<path d="M551.4 636.8C558.2 640.7 564.6 645 570.9 649.5C577.1 654 583.3 658.6 589.1 663.7C582.4 659.9 576 655.5 569.7 651.1C563.4 646.6 557.3 642 551.4 636.8Z" fill="#263238"/>
<path d="M562.5 631.1C567.7 632.7 572.8 634.5 577.9 636.3C583 638.1 588.1 640 593.1 641.9C598.2 643.9 603.2 645.9 608.2 648L615.7 651.2C618.1 652.4 620.6 653.5 623 654.6C620.4 653.9 617.9 653 615.3 652.2L607.6 649.5C602.5 647.7 597.5 645.7 592.4 643.8C587.4 641.8 582.3 639.8 577.4 637.7C572.4 635.6 567.4 633.4 562.5 631.1Z" fill="#263238"/>
<path d="M577.3 594.4C582.2 593.1 587.3 592.1 592.3 591C597.3 589.9 602.3 589 607.4 588.1C612.4 587.3 617.5 586.4 622.6 585.7L630.2 584.6C632.8 584.3 635.3 584 637.9 583.8C635.4 584.4 632.9 585 630.4 585.6L622.9 587.2C617.8 588.3 612.8 589.2 607.7 590.1C602.7 591 597.6 591.8 592.5 592.5C587.5 593.3 582.4 594 577.3 594.4Z" fill="#263238"/>
<path d="M457.2 625.6C458.1 621.5 459.4 617.6 461.2 613.8C463 610.1 465.1 606.5 467.8 603.3C470.5 600.1 473.9 597.3 477.9 595.8C481.9 594.3 486.5 594.3 490.5 595.9C494.6 597.5 497.8 600.9 499.5 604.8C500.4 606.8 501 608.9 501.2 611C501.4 613.2 501.3 615.4 500.4 617.6C500 618.6 499.3 619.7 498.2 620.4C497.7 620.8 497.1 621 496.4 621.1C495.8 621.2 495.2 621.1 494.4 620.9C493.1 620.3 492.4 619.2 491.9 618.3C491.367 617.3 490.967 616.266 490.7 615.2C489.5 611 489.4 606.8 489.6 602.6C490.2 594.2 492.4 585.9 496.9 578.7C499.2 575.1 502.1 571.8 505.6 569.4C509.1 567 513.2 565.4 517.4 564.9C519.4 564.4 521.6 564.4 523.7 564.3C524.7 564.2 525.8 564.5 526.8 564.5C527.9 564.7 528.9 564.7 529.9 565C534.1 565.7 538 567.4 541.7 569.4C545.3 571.5 548.5 574.2 551.5 577.1C554.4 580 557 583.2 559.2 586.8C554.4 580 548.4 574.2 541.2 570.2C537.6 568.4 533.7 566.8 529.7 566.2C528.7 565.9 527.7 566 526.7 565.9C525.7 565.8 524.7 565.6 523.7 565.7C521.7 565.9 519.6 565.9 517.7 566.4C513.6 567 509.9 568.6 506.6 570.9C503.3 573.1 500.6 576.2 498.5 579.6C494.2 586.5 492.1 594.6 491.6 602.7C491.4 606.7 491.5 610.9 492.5 614.7C493 616.5 493.9 618.6 495.1 619.2C495.3 619.2 495.4 619.3 495.6 619.3C495.8 619.3 496 619.3 496.2 619.2C496.6 619.2 496.9 619.1 497.2 618.9C497.9 618.4 498.4 617.7 498.8 616.9C499.5 615.2 499.6 613.2 499.4 611.2C499.2 609.3 498.7 607.3 497.9 605.5C496.3 601.9 493.5 598.8 489.9 597.3C486.3 595.8 482 595.6 478.3 596.9C474.5 598.3 471.3 600.9 468.5 603.9C463.1 610 459.4 617.6 457.2 625.6Z" fill="#263238"/>
<path d="M272.4 677.4C274.4 673.8 277.2 670.6 280.5 668.1C283.8 665.6 287.6 663.7 291.7 662.8C295.8 661.8 300.2 661.8 304.2 663C308.3 664.2 312 666.6 314.9 669.7C317.9 672.7 320.1 676.4 321.6 680.3C323.1 684.3 324 688.5 323.7 692.8C323.4 694.9 323 697.2 321.3 699C320.5 699.9 319.2 700.5 318 700.5C316.8 700.5 315.6 700.3 314.5 699.8C313.4 699.2 312.5 698.2 312 697.1C311.5 696 311.3 694.9 311.3 693.8C311.2 691.5 311.7 689.4 312.3 687.4C313.7 683.3 315.9 679.7 318.5 676.4C321.1 673 324.1 670.1 327.5 667.7C334.3 662.7 342.9 660 351.4 661.1C355.5 661.7 359.6 662.9 363.3 665C366.9 667 370.1 669.9 372.7 673.1C375.3 676.4 377.3 680.1 378.9 683.9C380.4 687.7 381.6 691.7 382.2 695.8C380.5 687.8 377.2 680 371.9 673.8C369.3 670.7 366.2 668 362.6 666.1C359.1 664.2 355.2 663.1 351.2 662.7C343.2 661.8 335.1 664.4 328.6 669.1C322.2 673.9 316.9 680.5 314.2 688C313.6 689.9 313.1 691.8 313.2 693.7C313.3 695.6 313.9 697.4 315.4 698.1C316.1 698.5 317.1 698.7 317.9 698.7C318.7 698.633 319.4 698.3 320 697.7C321.2 696.5 321.7 694.5 321.9 692.6C322.2 688.7 321.4 684.7 320 680.9C318.5 677.2 316.4 673.7 313.7 670.8C311 667.9 307.6 665.6 303.8 664.3C300 663.1 295.9 663 292 663.8C284.1 665.5 276.8 670.4 272.4 677.4Z" fill="#263238"/>
<path d="M179.9 194.4C179.7 186.2 177.9 177.9 174.1 170.7C172.2 167.1 169.6 163.8 166.3 161.6C163 159.4 158.8 158.5 154.9 159.2C151.1 159.8 147.6 162.1 145.2 165.2C144 166.8 143 168.6 142.4 170.4C141.7 172.2 141.4 174.2 141.7 176.1C141.8 177 142.1 177.8 142.7 178.3C142.9 178.6 143.3 178.8 143.6 179C143.8 179.1 144 179.1 144.2 179.1C144.4 179.2 144.5 179.1 144.7 179.1C146 178.9 147.4 177.1 148.3 175.4C150.1 171.9 151.2 168 152 164C153.4 156 153.3 147.6 150.8 140C149.6 136.1 147.7 132.5 145 129.5C142.4 126.5 139.1 124 135.4 122.5C133.6 121.6 131.6 121.1 129.7 120.5C128.7 120.1 127.7 120.1 126.7 119.8C125.7 119.7 124.7 119.4 123.7 119.5C119.6 119.1 115.6 119.7 111.6 120.7C103.7 122.7 96.4002 127 90.2002 132.4C93.1002 129.5 96.5002 127 100 124.8C103.6 122.7 107.3 120.9 111.3 119.7C115.4 118.6 119.6 117.9 123.8 118.2C124.8 118.1 125.9 118.4 126.9 118.5C127.9 118.7 129 118.7 130 119.1C132 119.7 134.1 120.2 136 121.1C139.9 122.6 143.5 125.2 146.3 128.4C149.2 131.5 151.2 135.4 152.6 139.4C155.2 147.4 155.4 156.1 153.9 164.4C153.1 168.5 152 172.6 149.9 176.4C149.434 177.333 148.8 178.233 148 179.1C147.2 179.9 146.3 180.8 144.9 181C144.1 181.1 143.5 180.9 142.9 180.7C142.3 180.5 141.8 180.1 141.3 179.6C140.4 178.7 140 177.5 139.9 176.3C139.5 174 140 171.9 140.7 169.8C141.4 167.8 142.5 165.9 143.8 164.2C146.4 160.8 150.4 158.2 154.7 157.6C159 157 163.5 158.1 167 160.5C170.5 163 173.1 166.5 175 170.2C176.8 174 178.1 178 178.9 182.1C179.7 186.1 180.1 190.3 179.9 194.4Z" fill="#263238"/>
<path d="M621.5 298.7C613.5 297 605 296.8 597.1 298.8C593.2 299.9 589.4 301.6 586.4 304.3C583.6 307 581.7 310.9 581.4 314.8C581.1 318.7 582.6 322.6 585.1 325.7C586.3 327.2 587.8 328.6 589.4 329.6C591.1 330.7 592.9 331.5 594.8 331.7C595.7 331.7 596.6 331.6 597.2 331.2C597.6 331 597.8 330.7 598.1 330.4C598.2 330.3 598.2 330.1 598.4 329.9C598.4 329.7 598.4 329.6 598.5 329.5C598.5 328.1 597.1 326.4 595.7 325.1C592.7 322.4 589.1 320.5 585.4 318.8C578 315.6 569.9 313.7 561.8 314.3C557.8 314.6 553.8 315.6 550.3 317.5C546.8 319.4 543.6 322 541.3 325.3C539.9 326.8 539 328.6 537.9 330.3C537.3 331.2 537.1 332.2 536.6 333.1C536.3 334 535.7 334.9 535.5 335.9C534.2 339.8 533.9 343.9 533.9 347.9C534.1 356.1 536.5 364.2 540.3 371.5C538.1 368 536.5 364.2 535.2 360.2C534 356.3 533.1 352.2 532.9 348C532.8 343.8 533.1 339.6 534.3 335.5C534.5 334.5 535 333.6 535.4 332.6C535.8 331.6 536.1 330.6 536.7 329.7C537.7 327.9 538.6 325.9 540 324.3C542.4 320.9 545.7 318 549.5 316C553.2 313.9 557.4 312.9 561.6 312.5C570.1 311.8 578.5 313.7 586.2 317C590.1 318.7 593.8 320.8 597 323.7C597.8 324.433 598.534 325.233 599.2 326.1C599.8 327.1 600.4 328.2 600.3 329.6C600.2 330.4 599.9 331 599.6 331.5C599.2 332 598.7 332.5 598.1 332.8C597 333.4 595.8 333.6 594.6 333.5C592.3 333.2 590.3 332.3 588.5 331.1C586.7 329.9 585.1 328.5 583.7 326.8C581 323.4 579.4 319 579.9 314.7C580.3 310.3 582.4 306.3 585.6 303.4C588.8 300.5 592.8 298.9 596.9 297.9C601 297 605.1 296.7 609.3 296.9C613.4 297 617.6 297.6 621.5 298.7Z" fill="#263238"/>
<path d="M497.7 169.3C496.4 164.6 496.2 159.5 496.9 154.6C497.7 149.7 499.4 144.9 502.1 140.7C504.7 136.5 508.5 132.8 513 130.5C517.5 128.2 522.6 127.2 527.6 127.3C532.7 127.4 537.6 128.8 542.2 130.8C546.7 133 551 135.8 554.3 139.7C555.9 141.7 557.4 144 557.5 146.9C557.6 148.3 557 149.9 556 150.9C554.9 151.9 553.8 152.7 552.4 153.1C551.1 153.5 549.5 153.4 548.2 152.9C546.9 152.4 545.8 151.6 544.8 150.7C542.9 148.9 541.5 146.6 540.4 144.4C538.2 139.8 537 134.9 536.5 129.9C535.9 124.9 536.1 119.8 536.9 114.9C538.6 105 543.7 95.5003 551.8 89.4003C555.8 86.4003 560.3 84.0003 565.2 82.8003C570 81.5003 575.1 81.2003 580 81.8003C585 82.4003 589.8 83.9003 594.3 85.8003C598.8 87.8003 603.2 90.2003 607.1 93.2003C599 87.7003 589.6 83.8003 579.9 82.8003C575.1 82.3003 570.1 82.7003 565.5 84.0003C560.8 85.3003 556.6 87.7003 552.7 90.7003C549 93.7003 545.8 97.4003 543.4 101.6C541.1 105.8 539.6 110.5 538.7 115.2C537.2 124.7 538.2 134.8 542.2 143.5C543.2 145.7 544.5 147.7 546.1 149.3C547.8 150.9 549.9 151.9 551.9 151.3C552.9 151 553.9 150.3 554.6 149.6C555.3 148.9 555.7 148 555.7 146.9C555.7 144.8 554.4 142.7 552.9 140.9C549.9 137.2 545.8 134.5 541.5 132.4C537.1 130.4 532.3 129.2 527.5 128.9C522.8 128.7 517.9 129.6 513.6 131.8C509.3 133.9 505.6 137.3 503 141.3C497.6 149.4 495.5 159.7 497.7 169.3Z" fill="#263238"/>
<path fill-rule="evenodd" clip-rule="evenodd" d="M280.3 691.3C277.3 700.8 267.2 705.999 257.8 703.099C248.4 700.099 243.1 689.999 246.1 680.599C249.1 671.099 259.1 665.9 268.6 668.9C278 671.8 283.3 681.9 280.3 691.3ZM266.1 676.599C261 674.999 255.5 677.8 253.8 683C252.2 688.2 255.1 693.7 260.2 695.3C265.4 697 270.9 694.1 272.6 688.9C274.2 683.7 271.3 678.199 266.1 676.599Z" fill="#455A64"/>
<path d="M261.3 703.4L254.7 701.3L253.6 706.1L259.5 707.9L261.3 703.4Z" fill="#455A64"/>
<path d="M249.5 697.2L246.3 691.1L242.2 693.7L245 699.1L249.5 697.2Z" fill="#455A64"/>
<path d="M245.5 684.5L247.6 677.9L242.8 676.8L241 682.7L245.5 684.5Z" fill="#455A64"/>
<path d="M251.7 672.7L257.8 669.5L255.2 665.4L249.7 668.2L251.7 672.7Z" fill="#455A64"/>
<path d="M264.4 668.7L270.9 670.8L272 666L266.2 664.2L264.4 668.7Z" fill="#455A64"/>
<path d="M276.2 674.9L279.4 681L283.5 678.4L280.7 672.9L276.2 674.9Z" fill="#455A64"/>
<path d="M280.2 687.6L278.1 694.1L282.9 695.2L284.7 689.4L280.2 687.6Z" fill="#455A64"/>
<path d="M274 699.4L267.9 702.6L270.5 706.7L275.9 703.9L274 699.4Z" fill="#455A64"/>
<path fill-rule="evenodd" clip-rule="evenodd" d="M559 626.4C546.9 617.4 544.3 600.2 553.3 588C562.4 575.9 579.5 573.4 591.7 582.4C603.8 591.4 606.4 608.6 597.3 620.7C588.3 632.9 571.2 635.4 559 626.4ZM583 594.1C577.3 589.9 569.3 591.1 565.1 596.7C560.9 602.4 562 610.4 567.7 614.6C573.4 618.9 581.4 617.7 585.6 612C589.8 606.3 588.6 598.3 583 594.1Z" fill="#263238"/>
<path d="M563.9 628.6L555.5 622.3L551.5 628.7L559 634.2L563.9 628.6Z" fill="#263238"/>
<path d="M549.9 613.8L548.4 603.4L541.1 605L542.5 614.3L549.9 613.8Z" fill="#263238"/>
<path d="M550.5 593.4L556.8 585L550.5 581L544.9 588.5L550.5 593.4Z" fill="#263238"/>
<path d="M565.3 579.5L575.7 577.9L574.1 570.6L564.8 572L565.3 579.5Z" fill="#263238"/>
<path d="M585.7 580L594.1 586.3L598.1 580L590.6 574.4L585.7 580Z" fill="#263238"/>
<path d="M599.7 594.8L601.2 605.3L608.5 603.6L607.1 594.3L599.7 594.8Z" fill="#263238"/>
<path d="M599.1 615.2L592.8 623.6L599.1 627.6L604.7 620.1L599.1 615.2Z" fill="#263238"/>
<path d="M584.3 629.2L573.9 630.7L575.5 638L584.8 636.6L584.3 629.2Z" fill="#263238"/>
<path fill-rule="evenodd" clip-rule="evenodd" d="M569 597L578.2 595.6L584.1 602.9L580.6 611.6L571.4 613L565.5 605.7L569 597ZM572.5 602.6C571.5 603.9 571.8 605.7 573.1 606.7C574.4 607.7 576.3 607.4 577.2 606.1C578.2 604.8 577.9 602.9 576.6 601.9C575.3 601 573.4 601.2 572.5 602.6Z" fill="#263238"/>
<path fill-rule="evenodd" clip-rule="evenodd" d="M630.6 99.0005C628 107.3 619.2 111.9 610.9 109.3C602.7 106.7 598.1 97.8005 600.7 89.6005C603.3 81.3005 612.1 76.7005 620.4 79.3005C628.6 81.9005 633.2 90.8005 630.6 99.0005ZM618.2 86.1005C613.7 84.7005 608.9 87.2005 607.4 91.7005C606 96.2005 608.5 101.1 613.1 102.5C617.6 103.9 622.4 101.4 623.8 96.9005C625.3 92.4005 622.8 87.5005 618.2 86.1005Z" fill="#263238"/>
<path d="M614 109.5L608.3 107.7L607.3 111.9L612.4 113.5L614 109.5Z" fill="#263238"/>
<path d="M603.7 104.2L600.9 98.7998L597.3 101.1L599.7 105.8L603.7 104.2Z" fill="#263238"/>
<path d="M600.2 92.9998L602 87.2998L597.8 86.2998L596.2 91.3998L600.2 92.9998Z" fill="#263238"/>
<path d="M605.6 82.6998L610.9 79.8998L608.6 76.2998L603.9 78.7998L605.6 82.6998Z" fill="#263238"/>
<path d="M616.7 79.2002L622.4 81.0002L623.4 76.8002L618.3 75.2002L616.7 79.2002Z" fill="#263238"/>
<path d="M627 84.6004L629.8 89.9004L633.4 87.7004L631 82.9004L627 84.6004Z" fill="#263238"/>
<path d="M630.5 95.7002L628.7 101.5L632.9 102.4L634.5 97.3002L630.5 95.7002Z" fill="#263238"/>
<path d="M625.1 106L619.8 108.8L622 112.5L626.8 110L625.1 106Z" fill="#263238"/>
<path fill-rule="evenodd" clip-rule="evenodd" d="M554.2 384.7C551.6 393 542.8 397.6 534.5 395C526.2 392.4 521.7 383.6 524.3 375.3C526.9 367.1 535.7 362.5 543.9 365.1C552.2 367.7 556.8 376.5 554.2 384.7ZM541.8 371.8C537.3 370.4 532.4 372.9 531 377.4C529.6 382 532.1 386.8 536.6 388.2C541.2 389.7 546 387.1 547.4 382.6C548.8 378.1 546.3 373.3 541.8 371.8Z" fill="#263238"/>
<path d="M537.6 395.3L531.8 393.5L530.9 397.6L536 399.2L537.6 395.3Z" fill="#263238"/>
<path d="M527.2 389.9L524.5 384.5L520.8 386.8L523.3 391.6L527.2 389.9Z" fill="#263238"/>
<path d="M523.7 378.8L525.5 373L521.4 372L519.8 377.2L523.7 378.8Z" fill="#263238"/>
<path d="M529.1 368.4L534.5 365.6L532.2 362L527.4 364.5L529.1 368.4Z" fill="#263238"/>
<path d="M540.2 364.9L546 366.7L547 362.6L541.8 361L540.2 364.9Z" fill="#263238"/>
<path d="M550.6 370.3L553.4 375.7L557 373.4L554.5 368.6L550.6 370.3Z" fill="#263238"/>
<path d="M554.1 381.4L552.3 387.2L556.4 388.2L558.1 383L554.1 381.4Z" fill="#263238"/>
<path d="M548.7 391.8L543.3 394.6L545.6 398.2L550.4 395.7L548.7 391.8Z" fill="#263238"/>
<path fill-rule="evenodd" clip-rule="evenodd" d="M75.4999 165.3C62.8999 162.2 55.0999 149.5 58.1999 136.8C61.2999 124.2 73.9999 116.4 86.6999 119.5C99.3999 122.6 107.1 135.3 104 148C101 160.6 88.1999 168.4 75.4999 165.3ZM83.6999 131.7C77.7999 130.3 71.8999 133.9 70.3999 139.8C68.9999 145.7 72.5999 151.7 78.4999 153.1C84.3999 154.5 90.3999 150.9 91.7999 145C93.2999 139.1 89.5999 133.1 83.6999 131.7Z" fill="#263238"/>
<path d="M80.1998 165.4L71.3998 163.3L70.2998 169.7L78.1998 171.6L80.1998 165.4Z" fill="#263238"/>
<path d="M64.1002 158.4L59.4002 150.6L54.2002 154.4L58.4002 161.3L64.1002 158.4Z" fill="#263238"/>
<path d="M57.8001 142L59.9001 133.2L53.6001 132.2L51.6001 140L57.8001 142Z" fill="#263238"/>
<path d="M64.7999 126L72.5999 121.3L68.7999 116.1L61.8999 120.2L64.7999 126Z" fill="#263238"/>
<path d="M81.2002 119.6L90.0002 121.8L91.0002 115.4L83.2002 113.5L81.2002 119.6Z" fill="#263238"/>
<path d="M97.2002 126.7L101.9 134.4L107.2 130.7L103 123.8L97.2002 126.7Z" fill="#263238"/>
<path d="M103.6 143L101.4 151.8L107.8 152.9L109.7 145L103.6 143Z" fill="#263238"/>
<path d="M96.4998 159.1L88.7998 163.8L92.4998 169L99.3998 164.8L96.4998 159.1Z" fill="#263238"/>
<path fill-rule="evenodd" clip-rule="evenodd" d="M73.6001 138.7L80.5001 134.5L87.6001 138.4L87.7001 146.4L80.9001 150.6L73.8001 146.7L73.6001 138.7ZM78.2001 142C77.8001 143.4 78.7001 144.8 80.0001 145.1C81.4001 145.4 82.8001 144.6 83.1001 143.2C83.5001 141.8 82.6001 140.5 81.3001 140.1C79.9001 139.8 78.5001 140.6 78.2001 142Z" fill="#263238"/>
<path d="M637.2 391.9C631.8 383.7 628.8 374.5 628.8 364.7C628.8 330.3 666.5 302.5 713.1 302.5C759.7 302.5 797.4 330.3 797.4 364.7C797.4 399.1 759.7 427 713.1 427C690.5 427 670.1 420.5 654.9 409.8L625.9 417.2L637.2 391.9Z" fill="white"/>
<path fill-rule="evenodd" clip-rule="evenodd" d="M637.2 391.9C632.1 384.3 628.9 375.4 628.6 366.2C628.3 357.1 630.6 347.8 635.3 339.9C639.9 331.9 646.4 325.2 653.8 319.8C661.2 314.3 669.6 310.2 678.3 307.3C687 304.4 696.1 302.7 705.2 301.9C714.4 301.3 723.6 301.8 732.7 303.3C734.9 303.8 737.2 304.1 739.4 304.7L746.1 306.5L752.6 308.8C754.8 309.5 756.8 310.6 758.9 311.5C767.2 315.5 775 320.6 781.6 327.2C788.1 333.7 793.4 341.6 796.2 350.5C798.9 359.4 799.1 369.1 796.4 378C793.8 387 788.7 395 782.2 401.6C775.8 408.2 768 413.5 759.8 417.5C751.5 421.6 742.6 424.3 733.6 425.9C724.5 427.5 715.3 428.1 706.2 427.5C697 426.9 687.9 425.3 679.2 422.4C670.6 419.5 662.3 415.6 654.8 410.3L625.9 417.4L625.5 417.5L625.7 417.1L637.2 391.9ZM654.9 410.3L655.1 410.2L654.7 410.1C654.767 410.167 654.833 410.233 654.9 410.3ZM637.2 391.9L626.3 416.8L654.8 409.3H655L655.2 409.4C670.2 419.7 688.2 425.1 706.3 426.1C715.3 426.6 724.4 425.9 733.3 424.3C742.2 422.6 750.9 420 759 415.9C767.1 412 774.6 406.8 780.9 400.3C787.2 393.9 792.1 386.1 794.6 377.5C797.2 368.9 796.9 359.6 794.3 351.1C791.6 342.6 786.6 334.9 780.2 328.5C773.9 322.1 766.3 317.1 758.2 313.2C756.1 312.3 754.1 311.2 752 310.5L745.6 308.2L739 306.4C736.9 305.8 734.6 305.5 732.4 305C723.5 303.5 714.4 303 705.4 303.6C696.3 304.2 687.4 305.8 678.8 308.6C670.1 311.4 661.9 315.4 654.5 320.7C647.2 326 640.7 332.5 636 340.3C631.3 348 628.9 357.1 629 366.2C629.2 375.3 632.2 384.2 637.2 391.9ZM626.3 416.8L625.8 416.9L626.1 417.2L626.3 416.8Z" fill="#263238"/>
<path d="M669.7 374.9V379.6H650.9V352.4H669.4V357H656.1V363.6H667.6V367.8H656.1V374.9H669.7Z" fill="#263238"/>
<path fill-rule="evenodd" clip-rule="evenodd" d="M673.9 379.6V352.4H685.9C687.167 352.4 688.3 352.667 689.3 353.2C690.367 353.734 691.3 354.4 692.1 355.2C692.833 356.067 693.433 357.034 693.9 358.1C694.3 359.234 694.5 360.334 694.5 361.4C694.5 363.2 694.067 364.8 693.2 366.2C692.333 367.667 691.133 368.7 689.6 369.3L695.8 379.6H689.9L684.3 370.4H679.1V379.6H673.9ZM679.2 365.8H685.8C686.333 365.8 686.8 365.7 687.2 365.5C687.6 365.234 687.967 364.9 688.3 364.5C688.633 364.1 688.867 363.634 689 363.1C689.2 362.567 689.3 362 689.3 361.4C689.3 360.8 689.2 360.234 689 359.7C688.8 359.167 688.533 358.7 688.2 358.3C687.8 357.9 687.4 357.567 687 357.3C686.533 357.1 686.067 357 685.6 357H679.2V365.8Z" fill="#263238"/>
<path fill-rule="evenodd" clip-rule="evenodd" d="M699.3 379.6V352.4H711.3C712.566 352.4 713.733 352.667 714.8 353.2C715.866 353.734 716.766 354.4 717.5 355.2C718.3 356.067 718.9 357.034 719.3 358.1C719.766 359.234 720 360.334 720 361.4C720 363.2 719.566 364.8 718.7 366.2C717.766 367.667 716.566 368.7 715.1 369.3L721.3 379.6H715.3L709.8 370.4H704.6V379.6H699.3ZM704.6 365.8H711.2C711.666 365.8 712.133 365.7 712.6 365.5C713 365.234 713.333 364.9 713.6 364.5C713.933 364.1 714.2 363.634 714.4 363.1C714.533 362.567 714.6 362 714.6 361.4C714.6 360.8 714.5 360.234 714.3 359.7C714.1 359.167 713.833 358.7 713.5 358.3C713.166 357.9 712.766 357.567 712.3 357.3C711.9 357.1 711.466 357 711 357H704.6V365.8Z" fill="#263238"/>
<path fill-rule="evenodd" clip-rule="evenodd" d="M736.4 379.7C734.4 379.7 732.567 379.334 730.9 378.6C729.3 377.8 727.933 376.767 726.8 375.5C725.6 374.167 724.7 372.7 724.1 371.1C723.433 369.434 723.1 367.734 723.1 366C723.1 364.2 723.433 362.467 724.1 360.8C724.767 359.134 725.7 357.667 726.9 356.4C728.1 355.067 729.533 354.034 731.2 353.3C732.8 352.567 734.567 352.2 736.5 352.2C738.433 352.2 740.233 352.6 741.9 353.4C743.5 354.2 744.867 355.267 746 356.6C747.133 357.867 748.033 359.334 748.7 361C749.3 362.667 749.6 364.334 749.6 366C749.6 367.867 749.267 369.6 748.6 371.2C747.933 372.867 747.033 374.334 745.9 375.6C744.7 376.867 743.3 377.867 741.7 378.6C740.033 379.334 738.267 379.7 736.4 379.7ZM728.5 366C728.5 367.134 728.667 368.267 729 369.4C729.333 370.467 729.867 371.434 730.6 372.3C731.267 373.1 732.067 373.767 733 374.3C734 374.834 735.133 375.1 736.4 375.1C737.667 375.1 738.8 374.834 739.8 374.3C740.8 373.767 741.633 373.067 742.3 372.2C742.967 371.334 743.467 370.367 743.8 369.3C744.133 368.234 744.3 367.134 744.3 366C744.3 364.8 744.133 363.667 743.8 362.6C743.4 361.467 742.867 360.5 742.2 359.7C741.533 358.834 740.7 358.134 739.7 357.6C738.7 357.134 737.6 356.9 736.4 356.9C735.133 356.9 734 357.167 733 357.7C732 358.234 731.167 358.934 730.5 359.8C729.833 360.6 729.333 361.567 729 362.7C728.667 363.767 728.5 364.867 728.5 366Z" fill="#263238"/>
<path fill-rule="evenodd" clip-rule="evenodd" d="M753.7 379.6V352.4H765.7C766.967 352.4 768.134 352.667 769.2 353.2C770.267 353.734 771.167 354.4 771.9 355.2C772.7 356.067 773.3 357.034 773.7 358.1C774.167 359.234 774.4 360.334 774.4 361.4C774.4 363.2 773.934 364.8 773 366.2C772.134 367.667 770.967 368.7 769.5 369.3L775.7 379.6H769.7L764.2 370.4H759V379.6H753.7ZM759 365.8H765.6C766.067 365.8 766.5 365.7 766.9 365.5C767.367 365.234 767.734 364.9 768 364.5C768.334 364.1 768.6 363.634 768.8 363.1C768.934 362.567 769 362 769 361.4C769 360.8 768.9 360.234 768.7 359.7C768.5 359.167 768.234 358.7 767.9 358.3C767.567 357.9 767.167 357.567 766.7 357.3C766.234 357.1 765.8 357 765.4 357H759V365.8Z" fill="#263238"/>
</svg>
